<svg width="18" height="18" viewBox="0 0 18 18" fill="none" xmlns="http://www.w3.org/2000/svg">
<path d="M9 10.125C10.3427 10.125 11.6303 9.59163 12.5797 8.64223C13.5291 7.69283 14.0625 6.40516 14.0625 5.0625C14.0625 3.71984 13.5291 2.43217 12.5797 1.48277C11.6303 0.533369 10.3427 0 9 0C7.65734 0 6.36967 0.533369 5.42027 1.48277C4.47087 2.43217 3.9375 3.71984 3.9375 5.0625C3.9375 6.40516 4.47087 7.69283 5.42027 8.64223C6.36967 9.59163 7.65734 10.125 9 10.125ZM5.6707 11.25C2.53828 11.25 0 13.7883 0 16.9207C0 17.5184 0.485156 18 1.0793 18H16.9207C17.5184 18 18 17.5148 18 16.9207C18 13.7883 15.4617 11.25 12.3293 11.25H5.6707Z" fill="white"/>
</svg>
