<svg width="26" height="19" viewBox="0 0 26 19" fill="none" xmlns="http://www.w3.org/2000/svg">
<path d="M1.82673 0.924255C2.523 0.924255 3.08553 1.48678 3.08553 2.18305V12.2534H11.8971V5.95944C11.8971 5.26317 12.4596 4.70065 13.1559 4.70065H21.9675C24.0524 4.70065 25.7439 6.39216 25.7439 8.47704V17.2886C25.7439 17.9849 25.1814 18.5474 24.4851 18.5474C23.7888 18.5474 23.2263 17.9849 23.2263 17.2886V16.0298H14.4147H13.1559H3.08553V17.2886C3.08553 17.9849 2.523 18.5474 1.82673 18.5474C1.13046 18.5474 0.567932 17.9849 0.567932 17.2886V2.18305C0.567932 1.48678 1.13046 0.924255 1.82673 0.924255ZM7.49132 4.70065C8.32595 4.70065 9.1264 5.0322 9.71658 5.62238C10.3068 6.21256 10.6383 7.01301 10.6383 7.84764C10.6383 8.68227 10.3068 9.48273 9.71658 10.0729C9.1264 10.6631 8.32595 10.9946 7.49132 10.9946C6.65668 10.9946 5.85623 10.6631 5.26606 10.0729C4.67588 9.48273 4.34432 8.68227 4.34432 7.84764C4.34432 7.01301 4.67588 6.21256 5.26606 5.62238C5.85623 5.0322 6.65668 4.70065 7.49132 4.70065Z" fill="#A2A2A2"/>
</svg>
