<svg width="18" height="18" viewBox="0 0 18 18" fill="none" xmlns="http://www.w3.org/2000/svg">
<path d="M11.4855 14.1926C10.7086 14.4738 9.87187 14.625 9 14.625C8.12813 14.625 7.28789 14.4703 6.51445 14.1926C6.50391 14.1891 6.49687 14.1855 6.48633 14.182C5.43164 13.7953 4.48945 13.173 3.72305 12.375C2.46094 11.0602 1.6875 9.27773 1.6875 7.3125C1.6875 3.27305 4.96055 0 9 0C13.0395 0 16.3125 3.27305 16.3125 7.3125C16.3125 9.27773 15.5391 11.0602 14.277 12.375C14.2418 12.4102 14.2066 12.4488 14.1715 12.484C13.4191 13.2363 12.5051 13.8234 11.4891 14.1926H11.4855ZM9 3.23086C8.60977 3.23086 8.29336 3.54727 8.29336 3.9375V4.14844C8.09648 4.19063 7.91016 4.25039 7.73438 4.32773C7.20703 4.5668 6.75352 5.00977 6.64102 5.65313C6.57773 6.01172 6.61289 6.35625 6.76055 6.67266C6.9082 6.98203 7.13672 7.2 7.36875 7.3582C7.77656 7.63594 8.31445 7.79766 8.72578 7.9207L8.80312 7.94531C9.2918 8.09297 9.62578 8.20547 9.8332 8.35664C9.92109 8.41992 9.95273 8.46914 9.96328 8.49727C9.97383 8.52539 9.99492 8.58867 9.97031 8.73281C9.94922 8.85586 9.88242 8.95781 9.68906 9.04219C9.47461 9.13359 9.12656 9.1793 8.67656 9.10898C8.46562 9.07383 8.08945 8.94727 7.75547 8.83125C7.67813 8.80664 7.6043 8.77852 7.53047 8.75742C7.16133 8.63438 6.76406 8.83477 6.64102 9.20391C6.51797 9.57305 6.71836 9.97031 7.0875 10.0934C7.12969 10.1074 7.18242 10.125 7.24219 10.1461C7.51992 10.241 7.95586 10.3887 8.28984 10.466V10.6875C8.28984 11.0777 8.60625 11.3941 8.99648 11.3941C9.38672 11.3941 9.70312 11.0777 9.70312 10.6875V10.4941C9.88945 10.459 10.0723 10.4062 10.2445 10.3324C10.7965 10.0969 11.243 9.63984 11.3555 8.97188C11.4187 8.60625 11.3906 8.2582 11.25 7.93828C11.1129 7.62188 10.8914 7.38984 10.6559 7.21758C10.227 6.9082 9.66094 6.73594 9.23555 6.60586L9.20742 6.59883C8.7082 6.44766 8.3707 6.34219 8.15625 6.19805C8.06484 6.13477 8.03672 6.09258 8.02969 6.075C8.02266 6.06445 8.00508 6.01875 8.02617 5.89922C8.03672 5.83242 8.09297 5.71641 8.31445 5.61445C8.53945 5.5125 8.89102 5.45625 9.31992 5.52305C9.47109 5.54766 9.94922 5.63906 10.0828 5.67422C10.459 5.77266 10.8422 5.55117 10.9441 5.175C11.0461 4.79883 10.8211 4.41563 10.4449 4.31367C10.2902 4.27148 9.93867 4.20117 9.70664 4.15898V3.9375C9.70664 3.54727 9.39023 3.23086 9 3.23086ZM1.6875 12.375H2.25C2.93555 13.2855 3.79687 14.052 4.78828 14.625H2.25V15.75H9H15.75V14.625H13.2117C14.2031 14.052 15.068 13.2855 15.75 12.375H16.3125C17.2441 12.375 18 13.1309 18 14.0625V16.3125C18 17.2441 17.2441 18 16.3125 18H1.6875C0.755859 18 0 17.2441 0 16.3125V14.0625C0 13.1309 0.755859 12.375 1.6875 12.375Z" fill="white"/>
</svg>
