<svg width="110" height="19" viewBox="0 0 110 19" fill="none" xmlns="http://www.w3.org/2000/svg">
<path d="M0.517045 18V0.545454H4.20739V14.9574H11.6903V18H0.517045ZM22.4609 12.4261V4.90909H26.0916V18H22.6058V15.6222H22.4695C22.174 16.3892 21.6825 17.0057 20.995 17.4716C20.3132 17.9375 19.4808 18.1705 18.4979 18.1705C17.6229 18.1705 16.853 17.9716 16.1882 17.5739C15.5234 17.1761 15.0036 16.6108 14.6286 15.8778C14.2592 15.1449 14.0717 14.267 14.0661 13.2443V4.90909H17.6967V12.5966C17.7024 13.3693 17.9098 13.9801 18.3189 14.429C18.728 14.8778 19.2763 15.1023 19.9638 15.1023C20.4013 15.1023 20.8104 15.0028 21.1911 14.804C21.5717 14.5994 21.8786 14.2983 22.1115 13.9006C22.3501 13.5028 22.4666 13.0114 22.4609 12.4261ZM32.0298 4.90909L34.4332 9.4858L36.8963 4.90909H40.6207L36.8281 11.4545L40.723 18H37.0156L34.4332 13.4744L31.8935 18H28.1435L32.0298 11.4545L28.2798 4.90909H32.0298ZM48.2741 18.2557C46.9276 18.2557 45.7685 17.983 44.7969 17.4375C43.831 16.8864 43.0866 16.108 42.5639 15.1023C42.0412 14.0909 41.7798 12.8949 41.7798 11.5142C41.7798 10.1676 42.0412 8.9858 42.5639 7.96875C43.0866 6.9517 43.8224 6.15909 44.7713 5.59091C45.7259 5.02273 46.8452 4.73864 48.1293 4.73864C48.9929 4.73864 49.7969 4.87784 50.5412 5.15625C51.2912 5.42898 51.9446 5.84091 52.5014 6.39205C53.0639 6.94318 53.5014 7.63636 53.8139 8.47159C54.1264 9.30114 54.2827 10.2727 54.2827 11.3864V12.3835H43.2287V10.1335H50.8651C50.8651 9.6108 50.7514 9.14773 50.5241 8.74432C50.2969 8.34091 49.9815 8.02557 49.5781 7.7983C49.1804 7.56534 48.7173 7.44886 48.1889 7.44886C47.6378 7.44886 47.1491 7.5767 46.723 7.83239C46.3026 8.08239 45.973 8.42045 45.7344 8.84659C45.4957 9.26705 45.3736 9.7358 45.3679 10.2528V12.392C45.3679 13.0398 45.4872 13.5994 45.7259 14.071C45.9702 14.5426 46.3139 14.9062 46.7571 15.1619C47.2003 15.4176 47.7259 15.5455 48.3338 15.5455C48.7372 15.5455 49.1065 15.4886 49.4418 15.375C49.777 15.2614 50.0639 15.0909 50.3026 14.8636C50.5412 14.6364 50.723 14.358 50.848 14.0284L54.206 14.25C54.0355 15.0568 53.6861 15.7614 53.1577 16.3636C52.6349 16.9602 51.9588 17.4261 51.1293 17.7614C50.3054 18.0909 49.3537 18.2557 48.2741 18.2557ZM71.3196 0.545454V18H68.1321L60.5384 7.0142H60.4105V18H56.7202V0.545454H59.9588L67.4929 11.5227H67.6463V0.545454H71.3196ZM80.2663 18.2557C78.9197 18.2557 77.7607 17.983 76.7891 17.4375C75.8232 16.8864 75.0788 16.108 74.5561 15.1023C74.0334 14.0909 73.772 12.8949 73.772 11.5142C73.772 10.1676 74.0334 8.9858 74.5561 7.96875C75.0788 6.9517 75.8146 6.15909 76.7635 5.59091C77.718 5.02273 78.8374 4.73864 80.1214 4.73864C80.9851 4.73864 81.7891 4.87784 82.5334 5.15625C83.2834 5.42898 83.9368 5.84091 84.4936 6.39205C85.0561 6.94318 85.4936 7.63636 85.8061 8.47159C86.1186 9.30114 86.2749 10.2727 86.2749 11.3864V12.3835H75.2209V10.1335H82.8572C82.8572 9.6108 82.7436 9.14773 82.5163 8.74432C82.2891 8.34091 81.9737 8.02557 81.5703 7.7983C81.1726 7.56534 80.7095 7.44886 80.1811 7.44886C79.63 7.44886 79.1413 7.5767 78.7152 7.83239C78.2947 8.08239 77.9652 8.42045 77.7266 8.84659C77.4879 9.26705 77.3658 9.7358 77.3601 10.2528V12.392C77.3601 13.0398 77.4794 13.5994 77.718 14.071C77.9624 14.5426 78.3061 14.9062 78.7493 15.1619C79.1925 15.4176 79.718 15.5455 80.326 15.5455C80.7294 15.5455 81.0987 15.4886 81.4339 15.375C81.7692 15.2614 82.0561 15.0909 82.2947 14.8636C82.5334 14.6364 82.7152 14.358 82.8402 14.0284L86.1982 14.25C86.0277 15.0568 85.6783 15.7614 85.1499 16.3636C84.6271 16.9602 83.951 17.4261 83.1214 17.7614C82.2976 18.0909 81.3459 18.2557 80.2663 18.2557ZM99.5362 8.64205L96.2124 8.84659C96.1555 8.5625 96.0334 8.30682 95.8459 8.07955C95.6584 7.84659 95.4112 7.66193 95.1044 7.52557C94.8033 7.38352 94.4425 7.3125 94.022 7.3125C93.4595 7.3125 92.9851 7.43182 92.5987 7.67045C92.2124 7.90341 92.0192 8.21591 92.0192 8.60795C92.0192 8.92045 92.1442 9.18466 92.3942 9.40057C92.6442 9.61648 93.0732 9.78977 93.6811 9.92045L96.0504 10.3977C97.3232 10.6591 98.272 11.0795 98.897 11.6591C99.522 12.2386 99.8345 13 99.8345 13.9432C99.8345 14.8011 99.5817 15.554 99.076 16.2017C98.576 16.8494 97.8885 17.3551 97.0135 17.7188C96.1442 18.0767 95.1413 18.2557 94.005 18.2557C92.272 18.2557 90.8913 17.8949 89.8629 17.1733C88.8402 16.446 88.2408 15.4574 88.0646 14.2074L91.6357 14.0199C91.7436 14.5483 92.005 14.9517 92.4197 15.2301C92.8345 15.5028 93.3658 15.6392 94.0135 15.6392C94.6499 15.6392 95.1612 15.517 95.5476 15.2727C95.9396 15.0227 96.1385 14.7017 96.1442 14.3097C96.1385 13.9801 95.9993 13.7102 95.7266 13.5C95.4538 13.2841 95.0334 13.1193 94.4652 13.0057L92.1982 12.554C90.9197 12.2983 89.968 11.8551 89.343 11.2244C88.7237 10.5937 88.4141 9.78977 88.4141 8.8125C88.4141 7.97159 88.6413 7.24716 89.0959 6.6392C89.5561 6.03125 90.201 5.5625 91.0305 5.23295C91.8658 4.90341 92.843 4.73864 93.9624 4.73864C95.6158 4.73864 96.9169 5.08807 97.8658 5.78693C98.8203 6.4858 99.3771 7.4375 99.5362 8.64205ZM109.084 4.90909V7.63636H101.2V4.90909H109.084ZM102.99 1.77273H106.621V13.9773C106.621 14.3125 106.672 14.5739 106.774 14.7614C106.876 14.9432 107.018 15.071 107.2 15.1449C107.388 15.2187 107.604 15.2557 107.848 15.2557C108.018 15.2557 108.189 15.2415 108.359 15.2131C108.53 15.179 108.661 15.1534 108.751 15.1364L109.322 17.8381C109.141 17.8949 108.885 17.9602 108.555 18.0341C108.226 18.1136 107.825 18.1619 107.354 18.179C106.479 18.2131 105.712 18.0966 105.053 17.8295C104.399 17.5625 103.891 17.1477 103.527 16.5852C103.163 16.0227 102.984 15.3125 102.99 14.4545V1.77273Z" fill="white"/>
</svg>
