<svg width="27" height="26" viewBox="0 0 27 26" fill="none" xmlns="http://www.w3.org/2000/svg">
<path d="M16.6637 4.84744H10.3697L8.03895 1.35133C7.68983 0.825192 8.06353 0.126953 8.69293 0.126953H18.3404C18.9698 0.126953 19.3435 0.825192 18.9944 1.35133L16.6637 4.84744ZM10.3697 6.42094H16.6637C16.8505 6.54387 17.062 6.68155 17.3029 6.83398C20.091 8.61892 26.1047 12.4642 26.1047 20.5824C26.1047 23.1885 23.9903 25.3029 21.3842 25.3029H5.6492C3.0431 25.3029 0.928711 23.1885 0.928711 20.5824C0.928711 12.4642 6.94242 8.61892 9.73046 6.83398C9.96648 6.68155 10.1828 6.54387 10.3697 6.42094ZM14.5001 10.7481C14.5001 10.2072 14.0576 9.76462 13.5167 9.76462C12.9758 9.76462 12.5332 10.2072 12.5332 10.7481V11.4365C12.1595 11.5201 11.7858 11.6528 11.4416 11.8544C10.7581 12.2625 10.1681 12.9755 10.173 14.0131C10.1779 15.0112 10.7631 15.6406 11.3875 16.0144C11.9284 16.3389 12.6021 16.5454 13.1381 16.7028L13.2217 16.7273C13.8412 16.9142 14.2936 17.0617 14.5985 17.2535C14.8492 17.4108 14.8837 17.519 14.8886 17.6567C14.8935 17.9025 14.8001 18.0501 14.5985 18.173C14.3526 18.3254 13.9641 18.4189 13.5462 18.4041C13.0004 18.3844 12.489 18.2123 11.8203 17.9861C11.7072 17.9468 11.5892 17.9075 11.4662 17.8681C10.9499 17.696 10.3943 17.9763 10.2222 18.4877C10.0501 18.9991 10.3304 19.5596 10.8417 19.7317C10.9352 19.7612 11.0384 19.7957 11.1417 19.835C11.5498 19.9776 12.0219 20.1399 12.5283 20.248V20.9758C12.5283 21.5167 12.9709 21.9592 13.5118 21.9592C14.0527 21.9592 14.4952 21.5167 14.4952 20.9758V20.2972C14.8886 20.2136 15.282 20.0759 15.636 19.8547C16.3391 19.417 16.8702 18.6696 16.8554 17.6419C16.8407 16.6438 16.2801 15.9996 15.6458 15.5964C15.0803 15.2424 14.3723 15.026 13.8216 14.8588L13.7871 14.849C13.1577 14.6572 12.7103 14.5195 12.3956 14.3327C12.1399 14.1802 12.135 14.0917 12.135 14.0032C12.135 13.8213 12.2038 13.6836 12.4398 13.5459C12.7054 13.3886 13.1086 13.2952 13.497 13.3001C13.9691 13.305 14.4903 13.4082 15.0312 13.5558C15.5573 13.6934 16.0933 13.3837 16.2359 12.8575C16.3785 12.3314 16.0638 11.7954 15.5376 11.6528C15.218 11.5692 14.864 11.4856 14.5001 11.4217V10.7481Z" fill="#A2A2A2"/>
</svg>
