<svg width="18" height="16" viewBox="0 0 18 16" fill="none" xmlns="http://www.w3.org/2000/svg">
<path d="M17.9953 7.98505C17.9953 8.5476 17.5265 8.98827 16.9952 8.98827H15.9951L16.017 13.9949C16.017 14.0793 16.0107 14.1637 16.0014 14.2481V14.7513C16.0014 15.4419 15.4419 16.0014 14.7513 16.0014H14.2512C14.2168 16.0014 14.1825 16.0014 14.1481 15.9982C14.1043 16.0014 14.0606 16.0014 14.0168 16.0014H13.0011H12.251C11.5604 16.0014 11.0009 15.4419 11.0009 14.7513V14.0012V12.001C11.0009 11.4478 10.554 11.0009 10.0009 11.0009H8.00068C7.44751 11.0009 7.0006 11.4478 7.0006 12.001V14.0012V14.7513C7.0006 15.4419 6.44117 16.0014 5.75049 16.0014H5.00043H4.00347C3.95659 16.0014 3.90971 15.9982 3.86283 15.9951C3.82533 15.9982 3.78782 16.0014 3.75032 16.0014H3.25028C2.55959 16.0014 2.00017 15.4419 2.00017 14.7513V11.251C2.00017 11.2228 2.00017 11.1916 2.0033 11.1635V8.98827H1.00009C0.437537 8.98827 0 8.55073 0 7.98505C0 7.70378 0.093758 7.45376 0.312527 7.23499L8.32571 0.250021C8.54448 0.0312527 8.7945 0 9.01327 0C9.23204 0 9.48206 0.0625053 9.66957 0.218769L17.6515 7.23499C17.9015 7.45376 18.0265 7.70378 17.9953 7.98505Z" fill="white"/>
</svg>
