<svg width="115" height="48" viewBox="0 0 115 48" fill="none" xmlns="http://www.w3.org/2000/svg">
<path d="M1.89631 7.18182H7.58523L13.5938 21.8409H13.8494L19.858 7.18182H25.5469V29H21.0724V14.799H20.8913L15.245 28.8935H12.1982L6.55185 14.7457H6.37074V29H1.89631V7.18182ZM49.3972 18.0909C49.3972 20.4702 48.9462 22.4943 48.0442 24.1634C47.1493 25.8324 45.9277 27.1072 44.3794 27.9879C42.8382 28.8615 41.1053 29.2983 39.1806 29.2983C37.2417 29.2983 35.5016 28.858 33.9604 27.9773C32.4192 27.0966 31.2012 25.8217 30.3063 24.1527C29.4114 22.4837 28.964 20.4631 28.964 18.0909C28.964 15.7116 29.4114 13.6875 30.3063 12.0185C31.2012 10.3494 32.4192 9.07812 33.9604 8.20455C35.5016 7.32386 37.2417 6.88352 39.1806 6.88352C41.1053 6.88352 42.8382 7.32386 44.3794 8.20455C45.9277 9.07812 47.1493 10.3494 48.0442 12.0185C48.9462 13.6875 49.3972 15.7116 49.3972 18.0909ZM44.7203 18.0909C44.7203 16.5497 44.4895 15.25 44.0279 14.1918C43.5733 13.1335 42.9306 12.331 42.0996 11.7841C41.2686 11.2372 40.2956 10.9638 39.1806 10.9638C38.0655 10.9638 37.0925 11.2372 36.2615 11.7841C35.4306 12.331 34.7843 13.1335 34.3226 14.1918C33.8681 15.25 33.6408 16.5497 33.6408 18.0909C33.6408 19.6321 33.8681 20.9318 34.3226 21.9901C34.7843 23.0483 35.4306 23.8509 36.2615 24.3977C37.0925 24.9446 38.0655 25.218 39.1806 25.218C40.2956 25.218 41.2686 24.9446 42.0996 24.3977C42.9306 23.8509 43.5733 23.0483 44.0279 21.9901C44.4895 20.9318 44.7203 19.6321 44.7203 18.0909ZM52.8143 29V7.18182H61.5501C63.1552 7.18182 64.494 7.41974 65.5664 7.8956C66.6388 8.37145 67.445 9.03196 67.9847 9.87713C68.5245 10.7152 68.7944 11.6811 68.7944 12.7749C68.7944 13.6271 68.6239 14.3764 68.283 15.0227C67.9421 15.6619 67.4734 16.1875 66.8768 16.5994C66.2873 17.0043 65.6126 17.2919 64.8526 17.4624V17.6754C65.6836 17.7109 66.4613 17.9453 67.1857 18.3786C67.9173 18.8118 68.5103 19.419 68.9648 20.2003C69.4194 20.9744 69.6467 21.8977 69.6467 22.9702C69.6467 24.1278 69.359 25.1612 68.7837 26.0703C68.2156 26.9723 67.3739 27.6861 66.2589 28.2116C65.1438 28.7372 63.7695 29 62.136 29H52.8143ZM57.4272 25.2287H61.1879C62.4734 25.2287 63.4109 24.9837 64.0004 24.4936C64.5898 23.9964 64.8846 23.3359 64.8846 22.5121C64.8846 21.9084 64.739 21.3757 64.4478 20.9141C64.1566 20.4524 63.7411 20.0902 63.2013 19.8274C62.6687 19.5646 62.033 19.4332 61.2944 19.4332H57.4272V25.2287ZM57.4272 16.3118H60.8469C61.479 16.3118 62.0401 16.2017 62.5302 15.9815C63.0273 15.7543 63.418 15.4347 63.7021 15.0227C63.9933 14.6108 64.1388 14.1172 64.1388 13.5419C64.1388 12.7536 63.8583 12.1179 63.2972 11.6349C62.7433 11.152 61.9549 10.9105 60.9322 10.9105H57.4272V16.3118ZM92.698 18.0909C92.698 20.4702 92.247 22.4943 91.345 24.1634C90.4501 25.8324 89.2285 27.1072 87.6802 27.9879C86.139 28.8615 84.4061 29.2983 82.4814 29.2983C80.5424 29.2983 78.8024 28.858 77.2612 27.9773C75.72 27.0966 74.502 25.8217 73.6071 24.1527C72.7122 22.4837 72.2647 20.4631 72.2647 18.0909C72.2647 15.7116 72.7122 13.6875 73.6071 12.0185C74.502 10.3494 75.72 9.07812 77.2612 8.20455C78.8024 7.32386 80.5424 6.88352 82.4814 6.88352C84.4061 6.88352 86.139 7.32386 87.6802 8.20455C89.2285 9.07812 90.4501 10.3494 91.345 12.0185C92.247 13.6875 92.698 15.7116 92.698 18.0909ZM88.0211 18.0909C88.0211 16.5497 87.7903 15.25 87.3287 14.1918C86.8741 13.1335 86.2314 12.331 85.4004 11.7841C84.5694 11.2372 83.5964 10.9638 82.4814 10.9638C81.3663 10.9638 80.3933 11.2372 79.5623 11.7841C78.7314 12.331 78.085 13.1335 77.6234 14.1918C77.1689 15.25 76.9416 16.5497 76.9416 18.0909C76.9416 19.6321 77.1689 20.9318 77.6234 21.9901C78.085 23.0483 78.7314 23.8509 79.5623 24.3977C80.3933 24.9446 81.3663 25.218 82.4814 25.218C83.5964 25.218 84.5694 24.9446 85.4004 24.3977C86.2314 23.8509 86.8741 23.0483 87.3287 21.9901C87.7903 20.9318 88.0211 19.6321 88.0211 18.0909ZM99.415 7.18182L103.815 14.6179H103.985L108.406 7.18182H113.616L106.958 18.0909L113.765 29H108.46L103.985 21.5533H103.815L99.3404 29H94.0563L100.885 18.0909L94.1841 7.18182H99.415Z" fill="white"/>
<path d="M31.7727 36H30.3636C30.2803 35.5947 30.1345 35.2386 29.9261 34.9318C29.7216 34.625 29.4716 34.3674 29.1761 34.1591C28.8845 33.947 28.5606 33.7879 28.2045 33.6818C27.8485 33.5758 27.4773 33.5227 27.0909 33.5227C26.3864 33.5227 25.7481 33.7008 25.1761 34.0568C24.608 34.4129 24.1553 34.9375 23.8182 35.6307C23.4848 36.3239 23.3182 37.1742 23.3182 38.1818C23.3182 39.1894 23.4848 40.0398 23.8182 40.733C24.1553 41.4261 24.608 41.9508 25.1761 42.3068C25.7481 42.6629 26.3864 42.8409 27.0909 42.8409C27.4773 42.8409 27.8485 42.7879 28.2045 42.6818C28.5606 42.5758 28.8845 42.4186 29.1761 42.2102C29.4716 41.9981 29.7216 41.7386 29.9261 41.4318C30.1345 41.1212 30.2803 40.7652 30.3636 40.3636H31.7727C31.6667 40.9583 31.4735 41.4905 31.1932 41.9602C30.9129 42.4299 30.5644 42.8295 30.1477 43.1591C29.7311 43.4848 29.2633 43.733 28.7443 43.9034C28.2292 44.0739 27.678 44.1591 27.0909 44.1591C26.0985 44.1591 25.2159 43.9167 24.4432 43.4318C23.6705 42.947 23.0625 42.2576 22.6193 41.3636C22.1761 40.4697 21.9545 39.4091 21.9545 38.1818C21.9545 36.9545 22.1761 35.8939 22.6193 35C23.0625 34.1061 23.6705 33.4167 24.4432 32.9318C25.2159 32.447 26.0985 32.2045 27.0909 32.2045C27.678 32.2045 28.2292 32.2898 28.7443 32.4602C29.2633 32.6307 29.7311 32.8807 30.1477 33.2102C30.5644 33.536 30.9129 33.9337 31.1932 34.4034C31.4735 34.8693 31.6667 35.4015 31.7727 36ZM37.4134 44.1818C36.6255 44.1818 35.9342 43.9943 35.3395 43.6193C34.7486 43.2443 34.2865 42.7197 33.9531 42.0455C33.6236 41.3712 33.4588 40.5833 33.4588 39.6818C33.4588 38.7727 33.6236 37.9792 33.9531 37.3011C34.2865 36.6231 34.7486 36.0966 35.3395 35.7216C35.9342 35.3466 36.6255 35.1591 37.4134 35.1591C38.2012 35.1591 38.8906 35.3466 39.4815 35.7216C40.0762 36.0966 40.5384 36.6231 40.8679 37.3011C41.2012 37.9792 41.3679 38.7727 41.3679 39.6818C41.3679 40.5833 41.2012 41.3712 40.8679 42.0455C40.5384 42.7197 40.0762 43.2443 39.4815 43.6193C38.8906 43.9943 38.2012 44.1818 37.4134 44.1818ZM37.4134 42.9773C38.0118 42.9773 38.5043 42.8239 38.8906 42.517C39.277 42.2102 39.563 41.8068 39.7486 41.3068C39.9342 40.8068 40.027 40.2652 40.027 39.6818C40.027 39.0985 39.9342 38.5549 39.7486 38.0511C39.563 37.5473 39.277 37.1402 38.8906 36.8295C38.5043 36.5189 38.0118 36.3636 37.4134 36.3636C36.8149 36.3636 36.3224 36.5189 35.9361 36.8295C35.5497 37.1402 35.2637 37.5473 35.0781 38.0511C34.8925 38.5549 34.7997 39.0985 34.7997 39.6818C34.7997 40.2652 34.8925 40.8068 35.0781 41.3068C35.2637 41.8068 35.5497 42.2102 35.9361 42.517C36.3224 42.8239 36.8149 42.9773 37.4134 42.9773ZM43.4148 44V35.2727H44.7102V36.6364H44.8239C45.0057 36.1705 45.2992 35.8087 45.7045 35.5511C46.1098 35.2898 46.5966 35.1591 47.1648 35.1591C47.7405 35.1591 48.2197 35.2898 48.6023 35.5511C48.9886 35.8087 49.2898 36.1705 49.5057 36.6364H49.5966C49.8201 36.1856 50.1553 35.8277 50.6023 35.5625C51.0492 35.2936 51.5852 35.1591 52.2102 35.1591C52.9905 35.1591 53.6288 35.4034 54.125 35.892C54.6212 36.3769 54.8693 37.1326 54.8693 38.1591V44H53.5284V38.1591C53.5284 37.5152 53.3523 37.0549 53 36.7784C52.6477 36.5019 52.233 36.3636 51.7557 36.3636C51.142 36.3636 50.6667 36.5492 50.3295 36.9205C49.9924 37.2879 49.8239 37.7538 49.8239 38.3182V44H48.4602V38.0227C48.4602 37.5265 48.2992 37.1269 47.9773 36.8239C47.6553 36.517 47.2405 36.3636 46.733 36.3636C46.3845 36.3636 46.0587 36.4564 45.7557 36.642C45.4564 36.8277 45.214 37.0852 45.0284 37.4148C44.8466 37.7405 44.7557 38.1174 44.7557 38.5455V44H43.4148ZM57.321 47.2727V35.2727H58.6165V36.6591H58.7756C58.8741 36.5076 59.0104 36.3144 59.1847 36.0795C59.3627 35.8409 59.6165 35.6288 59.946 35.4432C60.2794 35.2538 60.7301 35.1591 61.2983 35.1591C62.0331 35.1591 62.6809 35.3428 63.2415 35.7102C63.8021 36.0777 64.2396 36.5985 64.554 37.2727C64.8684 37.947 65.0256 38.7424 65.0256 39.6591C65.0256 40.5833 64.8684 41.3845 64.554 42.0625C64.2396 42.7367 63.804 43.2595 63.2472 43.6307C62.6903 43.9981 62.0483 44.1818 61.321 44.1818C60.7604 44.1818 60.3116 44.089 59.9744 43.9034C59.6373 43.714 59.3778 43.5 59.196 43.2614C59.0142 43.0189 58.8741 42.8182 58.7756 42.6591H58.6619V47.2727H57.321ZM58.6392 39.6364C58.6392 40.2955 58.7358 40.8769 58.929 41.3807C59.1222 41.8807 59.4044 42.2727 59.7756 42.5568C60.1468 42.8371 60.6013 42.9773 61.1392 42.9773C61.6998 42.9773 62.1676 42.8295 62.5426 42.5341C62.9214 42.2348 63.2055 41.8333 63.3949 41.3295C63.5881 40.822 63.6847 40.2576 63.6847 39.6364C63.6847 39.0227 63.59 38.4697 63.4006 37.9773C63.215 37.4811 62.9328 37.089 62.554 36.8011C62.179 36.5095 61.7074 36.3636 61.1392 36.3636C60.5938 36.3636 60.1354 36.5019 59.7642 36.7784C59.393 37.0511 59.1127 37.4337 58.9233 37.9261C58.7339 38.4148 58.6392 38.9848 58.6392 39.6364ZM69.6392 44.2045C69.0862 44.2045 68.5843 44.1004 68.1335 43.892C67.6828 43.6799 67.3248 43.375 67.0597 42.9773C66.7945 42.5758 66.6619 42.0909 66.6619 41.5227C66.6619 41.0227 66.7604 40.6174 66.9574 40.3068C67.1544 39.9924 67.4176 39.7462 67.7472 39.5682C68.0767 39.3902 68.4403 39.2576 68.8381 39.1705C69.2396 39.0795 69.643 39.0076 70.0483 38.9545C70.5786 38.8864 71.0085 38.8352 71.3381 38.8011C71.6714 38.7633 71.9138 38.7008 72.0653 38.6136C72.2206 38.5265 72.2983 38.375 72.2983 38.1591V38.1136C72.2983 37.553 72.1449 37.1174 71.8381 36.8068C71.535 36.4962 71.0748 36.3409 70.4574 36.3409C69.8172 36.3409 69.3153 36.4811 68.9517 36.7614C68.5881 37.0417 68.3324 37.3409 68.1847 37.6591L66.9119 37.2045C67.1392 36.6742 67.4422 36.2614 67.821 35.9659C68.2036 35.6667 68.6203 35.4583 69.071 35.3409C69.5256 35.2197 69.9725 35.1591 70.4119 35.1591C70.6922 35.1591 71.0142 35.1932 71.3778 35.2614C71.7453 35.3258 72.0994 35.4602 72.4403 35.6648C72.785 35.8693 73.071 36.178 73.2983 36.5909C73.5256 37.0038 73.6392 37.5568 73.6392 38.25V44H72.2983V42.8182H72.2301C72.1392 43.0076 71.9877 43.2102 71.7756 43.4261C71.5634 43.642 71.2813 43.8258 70.929 43.9773C70.5767 44.1288 70.1468 44.2045 69.6392 44.2045ZM69.8438 43C70.3741 43 70.821 42.8958 71.1847 42.6875C71.5521 42.4792 71.8286 42.2102 72.0142 41.8807C72.2036 41.5511 72.2983 41.2045 72.2983 40.8409V39.6136C72.2415 39.6818 72.1165 39.7443 71.9233 39.8011C71.7339 39.8542 71.5142 39.9015 71.2642 39.9432C71.018 39.9811 70.7775 40.0152 70.5426 40.0455C70.3116 40.072 70.1241 40.0947 69.9801 40.1136C69.6316 40.1591 69.3059 40.233 69.0028 40.3352C68.7036 40.4337 68.4612 40.5833 68.2756 40.7841C68.0938 40.9811 68.0028 41.25 68.0028 41.5909C68.0028 42.0568 68.1752 42.4091 68.5199 42.6477C68.8684 42.8826 69.3097 43 69.8438 43ZM77.4276 38.75V44H76.0866V35.2727H77.3821V36.6364H77.4957C77.7003 36.1932 78.0109 35.8371 78.4276 35.5682C78.8442 35.2955 79.3821 35.1591 80.0412 35.1591C80.6321 35.1591 81.1491 35.2803 81.5923 35.5227C82.0355 35.7614 82.3802 36.125 82.6264 36.6136C82.8726 37.0985 82.9957 37.7121 82.9957 38.4545V44H81.6548V38.5455C81.6548 37.8598 81.4768 37.3258 81.1207 36.9432C80.7647 36.5568 80.276 36.3636 79.6548 36.3636C79.2268 36.3636 78.8442 36.4564 78.5071 36.642C78.1738 36.8277 77.9105 37.0985 77.7173 37.4545C77.5241 37.8106 77.4276 38.2424 77.4276 38.75ZM85.9972 47.2727C85.7699 47.2727 85.5672 47.2538 85.3892 47.2159C85.2112 47.1818 85.0881 47.1477 85.0199 47.1136L85.3608 45.9318C85.6866 46.0152 85.9744 46.0455 86.2244 46.0227C86.4744 46 86.696 45.8883 86.8892 45.6875C87.0862 45.4905 87.2661 45.1705 87.429 44.7273L87.679 44.0455L84.4517 35.2727H85.9062L88.3153 42.2273H88.4062L90.8153 35.2727H92.2699L88.5653 45.2727C88.3987 45.7235 88.1922 46.0966 87.946 46.392C87.6998 46.6913 87.4138 46.9129 87.0881 47.0568C86.7661 47.2008 86.4025 47.2727 85.9972 47.2727Z" fill="white"/>
</svg>
